PathFileType	4	(X/Y/Z)	D:\TRACE\spotREDO_2-26-24\spot_justBody_Motion_1_2-v60.trc
DataRate	CameraRate	NumFrames	NumMarkers	Units	OrigDataRate	OrigDataStartFrame	OrigNumFrames
100.00	100.00	      39	9	mm	100.00	1	      7000
Frame#	Time	front left toe			Front right toe			aft left toe			aft right toe			Arm			FL body			FR body			AL Body			AR Body			
		X1	Y1	Z1	X2	Y2	Z2	X3	Y3	Z3	X4	Y4	Z4	X5	Y5	Z5	X6	Y6	Z6	X7	Y7	Z7	X8	Y8	Z8	X9	Y9	Z9	

1	0.000	-254.28784	25.51408	-204.30655	248.91653	26.01574	-242.30669	-218.20770	26.77798	383.14206	288.36554	29.63558	353.58112	-8.08993	623.90765	-386.38922	-88.07590	365.70538	-341.54788	67.69430	370.40598	-355.03067	-24.59248	426.70248	537.61603	123.51138	427.02814	527.45282	
2	0.010	-254.52583	25.46846	-204.31036	248.90895	25.90637	-242.49515	-218.19284	26.71224	383.10947	288.43295	29.56061	353.58560	-8.49144	627.13464	-385.09769	-88.25878	368.78812	-340.94165	66.78844	373.80786	-354.40396	-24.30633	428.89017	538.52295	123.75782	429.13339	528.20013	
3	0.020	-254.63348	25.26264	-204.34770	248.90097	25.64400	-242.68773	-218.22498	26.59150	383.03915	288.48917	29.39738	353.57022	-9.00329	630.51276	-384.23032	-88.63993	371.99109	-340.18896	66.71472	377.05811	-353.73584	-23.94031	430.94342	539.33734	124.18966	431.25412	528.89325	
4	0.030	-254.66693	24.99695	-204.36194	249.03519	25.46224	-242.86098	-218.25772	26.54265	382.97177	288.59442	29.18735	353.45135	-9.07353	633.71033	-383.08322	-88.85045	374.85297	-339.29956	66.33182	380.02045	-353.09790	-23.71377	432.92709	540.22772	124.84296	433.28946	529.59485	
5	0.040	-254.75714	25.03975	-204.38408	249.03970	25.48220	-242.90768	-218.22791	26.54991	383.02505	288.60553	29.08615	353.35526	-9.44197	636.45862	-382.28928	-89.07331	378.28671	-338.73105	65.95830	383.25574	-352.43161	-23.38471	434.95071	540.88733	124.87108	435.39462	530.28967	
6	0.050	-254.51247	24.19058	-203.88635	249.07726	25.47134	-243.01245	-218.25192	26.56737	382.99860	288.64554	29.07939	353.26660	-9.68938	639.54877	-381.18054	-89.46184	381.19031	-337.88712	65.61852	386.14035	-351.80826	-23.63501	436.87814	541.66992	125.88095	437.38208	531.26733	
7	0.060	-254.48254	23.82386	-203.84714	249.15579	25.44314	-243.14470	-218.34865	26.42575	383.05914	288.63089	29.07113	353.23093	-9.87745	642.40820	-380.63275	-89.63036	383.90091	-337.18399	65.35506	388.95200	-351.24969	-23.78332	438.81305	542.12396	125.76234	439.28323	531.59753	
8	0.070	-254.53215	23.60352	-203.90491	249.33603	25.43071	-243.22688	-218.40674	26.16266	383.09680	288.59744	28.99367	353.11639	-10.05058	645.39276	-379.45020	-89.75185	386.50409	-336.66760	65.13293	391.71634	-350.64746	-23.53681	440.73270	542.92401	125.76395	441.28314	532.15491	
9	0.080	-254.59927	23.46171	-203.93295	249.39386	25.40946	-243.27646	-218.52769	25.99612	383.07471	288.67694	28.94099	353.09283	-10.30874	648.16528	-378.80545	-89.76392	389.31003	-335.85443	65.02769	394.47681	-350.05057	-21.80177	442.60840	543.65137	125.95544	443.17477	532.71649	
10	0.090	-254.65623	23.49608	-203.95807	249.37518	25.39007	-243.34721	-218.51927	26.09590	383.03262	288.71460	28.93968	353.07831	-10.43251	651.07391	-377.76331	-90.05352	392.42453	-335.23923	64.96337	397.49060	-349.42578	-21.56052	444.73965	544.23840	126.45428	445.36157	533.40686	
11	0.100	-255.10463	24.36537	-204.56902	249.27956	25.40361	-243.41653	-218.35938	26.23475	382.88214	288.84161	28.93508	352.99738	-10.37272	653.83984	-376.85925	-90.38165	395.39206	-334.65381	64.91518	400.40457	-348.79382	-21.40207	446.86087	544.87976	126.67392	447.68365	533.99377	
12	0.110	-254.79323	23.38795	-204.12816	249.38165	25.38577	-243.47659	-218.41557	26.20213	382.90497	288.81729	28.94168	352.94409	-10.60065	656.61310	-375.96741	-90.53091	398.14496	-333.97601	64.63969	403.15372	-348.16956	-21.29626	449.09122	545.50012	126.68988	449.75397	534.50085	
13	0.120	-255.23067	23.29438	-204.23460	249.37093	25.28819	-243.58974	-218.42850	25.96190	382.82846	288.88925	28.90254	352.73471	-10.69067	659.51495	-375.40085	-90.76618	400.70648	-333.39218	64.59555	405.87335	-347.69379	-21.19164	451.35184	546.20697	126.80051	452.08188	535.06116	
14	0.130	-255.21478	23.23745	-204.47871	249.31165	25.11393	-243.80933	-218.61328	25.83352	382.77536	288.82047	28.81047	352.54736	-11.09846	662.68127	-374.84213	-90.84251	403.75543	-332.88922	64.29838	408.86395	-347.27005	-21.09270	453.84558	546.66522	126.93502	454.53766	535.79865	
15	0.140	-255.27559	23.30612	-204.55679	249.36824	25.10776	-243.89735	-218.61101	25.77371	382.68805	288.88815	28.68431	352.34677	-11.13442	665.75439	-374.07874	-90.93530	407.07486	-332.30359	64.08638	411.92065	-346.74823	-20.82715	456.45200	547.32147	127.12756	457.17422	536.25024	
16	0.150	-255.13655	23.21077	-204.79005	249.25975	25.09849	-243.98616	-218.57198	25.81193	382.66660	288.82953	28.54605	352.18454	-11.03185	669.17603	-373.29211	-91.18013	410.33713	-331.68359	64.09970	415.42999	-346.18503	-20.64900	459.15488	547.97949	127.07632	460.04779	536.78949	
17	0.160	-255.26587	23.20169	-204.93419	249.24834	25.07243	-244.07788	-218.55460	25.85278	382.60968	288.87634	28.41810	352.02679	-11.24497	672.62909	-372.52805	-91.32052	413.95175	-331.13370	63.80261	418.89792	-345.69144	-20.56048	462.10785	548.39349	127.27348	462.83710	537.19037	
18	0.170	-255.43404	23.15118	-205.18027	249.25555	25.00756	-244.20180	-218.64940	25.72018	382.53305	288.82776	28.29308	351.85800	-11.44757	676.11035	-372.07123	-91.16199	417.49136	-330.74371	63.71877	422.37875	-345.24939	-20.60638	465.10294	548.96741	127.31503	465.81793	537.70685	
19	0.180	-255.50203	22.91924	-205.12309	249.30418	24.83121	-244.52547	-218.68712	25.45173	382.22073	288.75824	28.30318	351.72284	-11.15280	679.72296	-371.38806	-91.31813	420.95407	-330.28894	63.75076	426.01657	-344.64627	-20.73345	468.16437	549.37903	127.09939	469.06107	538.33820	
20	0.190	-255.42606	22.74822	-205.27605	249.41583	24.70709	-244.84906	-218.82109	25.44241	381.99792	288.83490	28.39987	351.66031	-11.27965	683.70374	-370.70987	-91.28368	424.78415	-329.67905	63.63200	429.80682	-344.23849	-20.65307	471.65494	549.98822	127.38755	472.21866	538.67566	
21	0.200	-255.53467	22.85400	-205.44000	249.46468	24.69998	-244.98801	-218.01529	24.63241	382.06625	288.84268	28.42684	351.61169	-11.18350	687.74774	-370.35040	-92.22851	429.62531	-330.05453	63.60174	433.83472	-343.83990	-20.46742	475.00110	550.38885	127.36971	475.47061	539.20245	
22	0.210	-255.75255	22.85889	-205.58006	249.50813	24.65154	-245.27538	-217.85916	24.44784	382.05716	288.90036	28.40445	351.56696	-11.40932	692.14331	-369.75253	-91.54454	433.48740	-328.99802	63.55806	438.03372	-343.40732	-20.34773	478.62909	550.81885	127.57790	479.17465	539.37225	
23	0.220	-255.87192	22.80239	-205.76814	249.65793	24.50357	-245.59116	-217.97635	24.48200	381.84372	289.03021	28.41784	351.43570	-11.44475	696.44855	-369.03635	-91.67918	437.79401	-328.69934	63.29323	442.48608	-343.13168	-20.13008	482.27948	551.35919	127.56205	482.80270	539.88654	
24	0.230	-255.73746	22.37243	-205.94914	249.68141	24.35923	-245.88188	-218.13087	24.53080	381.51349	289.02246	28.26365	351.07629	-11.33156	700.70618	-368.55902	-91.77761	442.07492	-328.27136	63.49339	446.74182	-342.77371	-20.13769	485.96094	551.62476	127.38132	486.45337	540.35596	
25	0.240	-255.80299	22.09456	-206.05341	249.67755	24.42077	-245.95927	-218.26830	24.32929	381.30338	288.98291	28.15577	350.73770	-11.25261	705.39563	-367.91650	-91.68675	446.36771	-327.66373	63.61434	451.47964	-342.61371	-20.01234	489.60391	552.21997	127.89504	489.97278	540.92914	
26	0.250	-255.88434	21.99343	-206.20844	249.65515	24.48055	-246.10388	-218.27826	24.30329	381.17953	289.04471	28.02569	350.38696	-11.29139	709.97021	-367.21100	-91.90275	451.28711	-327.36938	63.49458	456.16614	-342.23959	-20.86835	493.63278	552.30518	127.70784	493.96875	541.16418	
27	0.260	-256.03973	22.13428	-206.49908	249.69371	24.42689	-246.26138	-218.24010	24.28910	381.02972	289.05954	27.94567	350.22501	-11.31550	714.99268	-366.67633	-91.51436	455.97665	-326.80817	63.77292	460.86111	-341.90039	-20.72917	497.49484	552.68793	127.71568	497.85666	541.49915	
28	0.270	-255.31911	21.86896	-206.99088	249.79964	24.37569	-246.40833	-218.22313	24.32523	380.98795	289.13776	27.95508	350.14676	-11.30011	719.85089	-366.13629	-92.18672	461.09790	-326.93097	63.74797	465.68539	-341.58002	-20.37842	501.56732	553.15399	127.76605	501.75446	541.66132	
29	0.280	-256.24997	22.26503	-207.27858	250.02718	24.34320	-246.67090	-218.31599	24.17565	380.84207	289.16141	27.95920	350.01215	-11.28201	724.74982	-365.51480	-92.04196	465.79526	-326.76117	63.69844	470.57877	-341.18472	-21.46269	505.64658	553.23083	127.51633	505.71558	542.08984	
30	0.290	-256.61444	22.09294	-207.55156	250.16544	24.27788	-247.02461	-218.52026	24.03124	380.68390	289.12802	27.93087	349.70294	-11.19991	729.60260	-365.03763	-91.92638	470.57843	-326.40176	63.58281	475.31482	-341.02310	-21.02259	509.45343	553.75000	127.53605	509.81366	542.32672	
31	0.300	-256.61874	21.83005	-207.77145	249.99800	24.17732	-247.26512	-218.65897	23.95706	380.33136	289.00662	27.82802	349.46457	-11.35826	734.47961	-364.87466	-91.90535	475.49106	-325.96259	63.09435	480.29245	-340.81580	-20.72281	513.62323	553.91376	127.36989	513.80798	542.58978	
32	0.310	-256.75385	21.84849	-207.97464	249.90547	24.11098	-247.46162	-218.72217	24.05706	380.11179	288.85922	27.74593	349.16727	-11.27618	739.43134	-364.36530	-91.98655	480.48560	-325.95575	63.65508	485.21951	-340.47937	-20.94810	518.12842	554.38586	127.39815	517.85266	542.87708	
33	0.320	-256.79871	21.79955	-208.08473	249.94379	23.90813	-247.72556	-218.87381	24.19639	379.93457	288.68277	27.48034	348.72763	-11.42623	744.43707	-363.70560	-92.27364	485.52969	-325.77374	63.06697	490.07559	-340.21280	-21.18072	522.07574	554.78522	127.60187	521.93683	543.14050	
34	0.330	-256.97903	21.87574	-208.45993	250.02866	23.92746	-248.01961	-218.92560	24.17611	379.62671	288.92636	27.50480	348.61182	-11.51097	749.29773	-363.35513	-92.03683	490.09122	-325.42307	63.65130	494.98517	-339.92935	-21.30076	526.01984	555.00037	127.39164	526.11255	543.35736	
35	0.340	-257.07492	21.81935	-208.91194	250.14326	23.71241	-248.53716	-218.99519	24.02351	379.38562	289.01907	27.58819	348.54556	-11.43421	754.00012	-363.13263	-91.76724	494.73276	-325.21652	63.64038	499.57224	-339.90387	-21.21953	529.96069	555.13165	127.04221	529.99261	543.56409	
36	0.350	-257.34814	21.86645	-209.32132	250.00954	24.08811	-248.81967	-218.92986	23.64219	379.11557	289.00735	27.65086	348.30090	-11.30990	758.62915	-362.58820	-91.92741	499.51053	-325.32227	63.59054	504.32416	-339.76871	-21.57414	533.81866	555.25751	127.10054	533.92920	543.64301	
37	0.360	-257.46918	21.80691	-209.60489	249.91553	24.15351	-249.15561	-218.92769	23.62108	378.92844	289.17325	27.67782	347.94040	-11.27213	763.18713	-361.97653	-92.26162	504.23135	-325.37732	63.66636	508.80258	-339.63080	-21.22322	537.66296	555.57159	127.05386	537.61566	543.89026	
38	0.370	-257.51096	21.82365	-209.84714	249.90332	24.15273	-249.21613	-219.02359	23.61982	378.78595	289.21014	27.68487	347.70731	-11.28903	767.77570	-361.58856	-91.92770	508.66092	-324.93719	63.61943	513.41486	-339.35583	-21.51750	541.34912	555.71149	126.87944	541.45221	544.01868	
39	0.380	-257.53421	21.92003	-210.09006	250.16135	23.85263	-249.32742	-219.04555	23.61827	378.54739	289.16055	27.47234	347.23859	-11.37227	772.11407	-361.47165	-91.85452	513.01276	-324.76016	63.69842	517.86102	-339.49301	-21.47516	545.03021	555.93195	127.01579	545.10730	544.34753	
